# Alias OBJ Model File
# Exported from SketchUp, (c) 2000-2012 Trimble Navigation Limited
# File units = meters

mtllib floor.mtl

g Mesh1 Model

usemtl FrontColor
v 0 0 -0
vt 0 0
vn 0 -1 -0
v 0 0 -1
vt 0 39.3701
v 1 0 -1
vt -39.3701 39.3701
v 1 0 -0
vt -39.3701 0
f 1/1/1 2/2/1 3/3/1 4/4/1 

vn -1 0 -0
v 0 0.2 -0
vt 0 7.87402
v 0 0.2 -1
vt -39.3701 7.87402
f 2/4/2 1/1/2 5/5/2 6/6/2 

vn 0 0 1
vt 39.3701 0
v 1 0.2 -0
vt 39.3701 7.87402
f 1/1/3 4/7/3 7/8/3 5/5/3 

vn 1 0 -0
v 1 0.2 -1
f 4/1/4 3/7/4 8/8/4 7/5/4 

vn 0 0 -1
f 3/4/5 2/1/5 6/5/5 8/6/5 

vn 0 1 -0
vt 39.3701 39.3701
f 6/2/6 5/1/6 7/7/6 8/9/6 

