# File produced by Open Asset Import Library (http://www.assimp.sf.net)
# (assimp v3.1.187496374)

mtllib betterCross.obj.mtl

# 24 vertex positions
v  4 0 -0.999841
v  3 0 -3.24984
v  3 0 -0.999841
v  4 0 -3.24984
v  3 0 -4.24984
v  2.99994 0 0.000636344
v  1 0 -4.24984
v  1 0 -0.999841
v  0.99994 0 0.000159081
v  1 0 -3.24984
v  0 0 -3.24984
v  0 0 -0.999841
v  1 -1 -3.24984
v  0 -1 -3.24984
v  0 -1 -0.999841
v  1 -1 -0.999841
v  0.99994 -1 0.000159081
v  2.99994 -1 0.000636344
v  3 -1 -0.999841
v  4 -1 -0.999841
v  4 -1 -3.24984
v  3 -1 -3.24984
v  3 -1 -4.24984
v  1 -1 -4.24984

# 0 UV coordinates

# 9 vertex normals
vn 0 0.0254 0
vn 0 0 -0.0254
vn -0.0254 0 0
vn 0 0 0.0254
vn -0.0254 0 -1.51531e-06
vn -6.06125e-06 0 0.0254
vn 0.0254 0 1.51459e-06
vn 0.0254 0 0
vn 0 -0.0254 0

# Mesh 'SketchUp_ID3' with 44 faces
g SketchUp_ID3
usemtl ID5
f  1//1 2//1 3//1
f  2//1 1//1 4//1
f  5//1 3//1 2//1
f  5//1 6//1 3//1
f  7//1 6//1 5//1
f  6//1 8//1 9//1
f  8//1 6//1 10//1
f  10//1 6//1 7//1
f  8//1 11//1 12//1
f  11//1 8//1 10//1
f  11//2 13//2 14//2
f  13//2 11//2 10//2
f  11//3 15//3 12//3
f  15//3 11//3 14//3
f  8//4 15//4 16//4
f  15//4 8//4 12//4
f  8//5 17//5 9//5
f  17//5 8//5 16//5
f  6//6 17//6 18//6
f  17//6 6//6 9//6
f  19//7 6//7 18//7
f  6//7 19//7 3//7
f  1//4 19//4 20//4
f  19//4 1//4 3//4
f  21//8 1//8 20//8
f  1//8 21//8 4//8
f  2//2 21//2 22//2
f  21//2 2//2 4//2
f  23//8 2//8 22//8
f  2//8 23//8 5//8
f  7//2 23//2 24//2
f  23//2 7//2 5//2
f  7//3 13//3 10//3
f  13//3 7//3 24//3
f  23//9 13//9 24//9
f  13//9 23//9 16//9
f  16//9 23//9 18//9
f  18//9 23//9 19//9
f  19//9 23//9 22//9
f  13//9 15//9 14//9
f  15//9 13//9 16//9
f  18//9 17//9 16//9
f  19//9 22//9 21//9
f  19//9 21//9 20//9

