# File produced by Open Asset Import Library (http://www.assimp.sf.net)
# (assimp v3.1.187496374)

mtllib cross section.obj.mtl

# 25 vertex positions
v  1.92 8.84695e-16 -5
v  2.93 0.51 -5
v  2.93 0 -5
v  1.92 0.51 -5
v  1.92 8.84695e-16 -3.02105
v  1.93 8.93542e-16 -1.96105
v  2.93 2.58382e-16 1.48183e-16
v  2.93 0 -3.02105
v  8.58789e-05 -3.20464e-15 -1.94285
v  -0.00991412 -3.21349e-15 -3.00285
v  1.93 8.93542e-16 2.32378e-16
v  2.93 0 -1.96105
v  4.93 0 -3.02105
v  4.93 0 -1.96105
v  1.92 0.51 -3.02105
v  2.85 0.51 7.04177e-17
v  1.93 0.51 -1.96105
v  1.93 0.51 2.32378e-16
v  2.93 0.51 0
v  2.93 0.51 -1.96105
v  8.58789e-05 0.51 -1.94285
v  2.93 0.51 -3.02105
v  4.93 0.51 -1.96105
v  4.93 0.51 -3.02105
v  -0.00991412 0.51 -3.00285

# 0 UV coordinates

# 13 vertex normals
vn 1.8155e-17 -9.39764e-34 -0.0254
vn 1.34679e-17 -0.0254 5.31904e-19
vn -0.0254 -3.5954e-17 9.26582e-18
vn -1.45745e-17 0.0254 2.20543e-19
vn 0.0254 0 0
vn 0 0 -0.0254
vn 0 0 0.0254
vn 0.0254 2.54467e-31 1.37684e-32
vn 3.8887e-18 3.38244e-18 0.0254
vn -0.0254 -1.7977e-17 -4.67518e-18
vn 0.000239612 3.15673e-19 0.0253989
vn -0.0253989 -5.39317e-17 0.000239612
vn -0.000239612 -6.59323e-19 -0.0253989

# Mesh 'SketchUp_ID3' with 46 faces
g SketchUp_ID3
usemtl ID5
f  1//1 2//1 3//1
f  2//1 1//1 4//1
f  3//2 5//2 1//2
f  5//2 3//2 6//2
f  6//2 3//2 7//2
f  7//2 3//2 8//2
f  5//2 9//2 10//2
f  9//2 5//2 6//2
f  7//2 11//2 6//2
f  7//2 8//2 12//2
f  12//2 8//2 13//2
f  12//2 13//2 14//2
f  4//3 5//3 15//3
f  5//3 4//3 1//3
f  16//4 17//4 18//4
f  19//4 20//4 16//4
f  2//4 17//4 16//4
f  2//4 16//4 20//4
f  15//4 21//4 17//4
f  15//4 17//4 4//4
f  4//4 17//4 2//4
f  2//4 20//4 22//4
f  23//4 22//4 20//4
f  22//4 23//4 24//4
f  21//4 15//4 25//4
f  3//5 22//5 8//5
f  22//5 3//5 2//5
f  22//6 13//6 8//6
f  13//6 22//6 24//6
f  13//5 23//5 14//5
f  23//5 13//5 24//5
f  23//7 12//7 14//7
f  12//7 23//7 20//7
f  12//8 19//8 7//8
f  19//8 12//8 20//8
f  19//9 11//9 7//9
f  11//9 19//9 18//9
f  18//9 19//9 16//9
f  17//10 11//10 18//10
f  11//10 17//10 6//10
f  6//11 21//11 9//11
f  21//11 6//11 17//11
f  25//12 9//12 21//12
f  9//12 25//12 10//12
f  25//13 5//13 10//13
f  5//13 25//13 15//13

